<!-- icon666.com - MILLIONS vector ICONS FREE --><svg version="1.1" id="Capa_1" xmlns="http://www.w3.org/2000/svg" xmlns:xlink="http://www.w3.org/1999/xlink" x="0px" y="0px" viewBox="0 0 512 512" style="enable-background:new 0 0 512 512;" xml:space="preserve"><g><g><path d="M331,362c-16.538,0-30,13.462-30,30c0,16.538,13.462,30,30,30c16.538,0,30-13.462,30-30C361,375.462,347.538,362,331,362z " fill="#000000" style="fill: rgb(255, 255, 255);"></path></g></g><g><g><path d="M180,362c-16.538,0-30,13.462-30,30c0,16.538,13.462,30,30,30c16.538,0,31-13.462,31-30C211,375.462,196.538,362,180,362z " fill="#000000" style="fill: rgb(255, 255, 255);"></path></g></g><g><g><path d="M508.353,376.898l-17.666-141.299C484.739,187.947,443.031,150,394.984,150c-14.766,0-29.517,3.486-42.671,10.078 C326.225,173.115,297.03,180,267.909,180h-23.818c-29.121,0-59.315-6.885-85.39-19.907C145.532,153.486,130.781,150,116.016,150 c-48.047,0-88.755,37.947-94.702,85.599L3.647,376.897C1.23,396.189,0,415.892,0,435.462C0,477.664,34.336,512,76.538,512 c22.5,0,43.755-9.829,58.315-26.968l29.945-35.224C139.092,443.031,120,419.808,120,392c0-33.091,26.909-60,60-60s61,26.909,61,60 c0,10.977-3.177,21.14-8.344,30h46.688c-5.167-8.86-8.344-19.023-8.344-30c0-33.091,26.909-60,60-60s60,26.909,60,60 c0,30.357-22.727,55.243-52.018,59.193l38.395,38.395C391.615,503.826,411.347,512,434.462,512 C476.664,512,512,477.664,512,435.462C512,415.892,510.77,396.19,508.353,376.898z M135,302h-15v15c0,8.291-6.709,15-15,15 s-15-6.709-15-15v-15H75c-8.291,0-15-6.709-15-15c0-8.291,6.709-15,15-15h15v-15c0-8.291,6.709-15,15-15s15,6.709,15,15v15h15 c8.291,0,15,6.709,15,15C150,295.291,143.291,302,135,302z M226,302h-30c-8.291,0-16-6.709-16-15c0-8.291,7.709-15,16-15h30 c8.291,0,15,6.709,15,15C241,295.291,234.291,302,226,302z M316,302h-30c-8.291,0-15-6.709-15-15c0-8.291,6.709-15,15-15h30 c8.291,0,15,6.709,15,15C331,295.291,324.291,302,316,302z M406,242c8.284,0,15,6.716,15,15s-6.716,15-15,15s-15-6.716-15-15 S397.716,242,406,242z M376,302c-8.284,0-15-6.716-15-15s6.716-15,15-15s15,6.716,15,15S384.284,302,376,302z M406,332 c-8.284,0-15-6.716-15-15s6.716-15,15-15s15,6.716,15,15S414.284,332,406,332z M436,302c-8.284,0-15-6.716-15-15s6.716-15,15-15 s15,6.716,15,15S444.284,302,436,302z" fill="#000000" style="fill: rgb(255, 255, 255);"></path></g></g><g><g><path d="M406,30c-8.291,0-15,6.709-15,15v30c0,8.276-6.724,15-15,15s-15-6.724-15-15V60c0-33.091-26.909-60-60-60 s-60,26.909-60,60v32.763c-17.422,6.213-30,22.707-30,42.237v11.331c10.88,2.322,21.974,3.669,33.091,3.669h23.818 c11.113,0,22.207-1.351,33.091-3.677V135c0-19.53-12.578-36.024-30-42.237V60c0-16.538,13.462-30,30-30c16.538,0,30,13.462,30,30 v15c0,24.814,20.186,45,45,45c24.814,0,45-20.186,45-45V45C421,36.709,414.291,30,406,30z" fill="#000000" style="fill: rgb(255, 255, 255);"></path></g></g></svg>