<!-- icon666.com - MILLIONS vector ICONS FREE --><svg id="svg1144" viewBox="0 0 8.4666667 8.4666667" xmlns="http://www.w3.org/2000/svg" xmlns:svg="http://www.w3.org/2000/svg"><g id="layer2"><path id="path1259" d="m4.233339.52916692c-.271486 0-.5431369.104896-.749817.311609l-2.09494 2.14353808c-.39930197.399341-.63516397.637571-.75188297.9611819-.11439099.3171541-.10748599.687456-.10748599 1.347721v1.5854331c0 .588957.47714896 1.0588498 1.05883796 1.0588498h1.057805l-.0005159-2.1171828c-.0003784-.58174.471943-1.0578172 1.0598718-1.0578172h1.056255c.587928 0 1.0602381.4760772 1.0598722 1.0578172l-.0005292 2.1171828h1.057805c.5816888 0 1.0588389-.4698928 1.0588389-1.0588498v-1.5854331c0-.660265.0069-1.0305669-.1074862-1.347721-.1167066-.3236109-.3525686-.5618409-.7518717-.9611819l-2.0949399-2.14353808c-.206684-.206713-.4783302-.311609-.749817-.311609zm-.5281271 4.76301708c-.291528 0-.5302909.2303979-.5301949.528133l.0005292 2.1171828h2.1156099l.0005292-2.1171828c.0000971-.2977351-.2386679-.528133-.530194-.528133z" font-variant-ligatures="normal" font-variant-position="normal" font-variant-caps="normal" font-variant-numeric="normal" font-variant-alternates="normal" font-feature-settings="normal" text-indent="0" text-align="start" text-decoration-line="none" text-decoration-style="solid" text-decoration-color="rgb(0,0,0)" text-transform="none" text-orientation="mixed" white-space="normal" shape-padding="0" isolation="auto" mix-blend-mode="normal" solid-color="rgb(0,0,0)" solid-opacity="1" vector-effect="none" fill="#000000" style="fill: rgb(255, 255, 255);"></path></g></svg>