<!-- icon666.com - MILLIONS vector ICONS FREE --><svg version="1.1" id="Capa_1" xmlns="http://www.w3.org/2000/svg" xmlns:xlink="http://www.w3.org/1999/xlink" x="0px" y="0px" viewBox="0 0 219.039 219.039" style="enable-background:new 0 0 219.039 219.039;" xml:space="preserve"><path d="M189.405,68.037l16.758-16.758l-38.4-38.402l-16.758,16.758c-4.563-2.373-9.352-4.369-14.33-5.941V0H82.367v23.693 c-4.979,1.572-9.77,3.568-14.331,5.941L51.278,12.877l-38.401,38.4l16.759,16.758c-2.374,4.563-4.37,9.354-5.942,14.332H0v54.307 h23.693c1.572,4.977,3.568,9.768,5.941,14.33l-16.758,16.758l38.402,38.4l16.758-16.758c4.562,2.375,9.352,4.369,14.33,5.943v23.691 h54.307v-23.691c4.979-1.574,9.768-3.568,14.33-5.943l16.758,16.758l38.4-38.4l-16.758-16.758c2.375-4.563,4.369-9.354,5.943-14.33 h23.691V82.367h-23.691C193.774,77.389,191.78,72.598,189.405,68.037z M109.519,147.826c-21.156,0-38.307-17.15-38.307-38.307 c0-21.156,17.15-38.307,38.307-38.307c21.157,0,38.307,17.15,38.307,38.307C147.827,130.676,130.676,147.826,109.519,147.826z" fill="#000000" style="fill: rgb(79, 79, 79);"></path></svg>